<?xml version="1.0" encoding="UTF-8"?>
<svg id="Capa_2" data-name="Capa 2" xmlns="http://www.w3.org/2000/svg" viewBox="0 0 306.73 543.2">
  <defs>
    <style>
      .cls-1 {
        fill: #020504;
      }

      .cls-2 {
        fill: #b53132;
      }

      .cls-3 {
        fill: #fefefe;
      }
    </style>
  </defs>
  <g id="Capa_1-2" data-name="Capa 1">
    <g>
      <path class="cls-1" d="M180.94,460.14c-18.81.67-32,.67-51.34-3.15,9.69,17.35,18,41.46,15.61,60.53-.54,4.32-3.06,6.71-7.07,7.9-6.24,1.86-12.5,2.49-19.04,3.53-12.67,2.03-25.15,3.22-37.91,1.74-2.53-.29-5.42-1.67-5.97-4.12-1.6-7.13.96-14.25,6.22-19.06l8.23-7.54c2.15-1.97,2.34-4.56.79-7.08-2.67-4.36-6.1-8.01-9.82-11.71-11.3-11.25-27.63-29.35-31.92-44.8-2.48-8.95-1.77-17.97,2.88-25.98,5.49-9.46,14.29-15.99,24.74-19.2-3.3-4.51-6.52-8.25-8.79-12.95-6.04-12.52-3.86-27.05,1.79-39.41,4.45-9.72,9.14-18.99,14.13-28.47,3.4-6.47,7.05-12.16,11.35-18.1-1.62-1.01-2.16-2.85-2.93-4.21-8.07-2.65-14.37-8.67-21.9-11.87-5.13-2.18-10.49-2.52-15.6-5.77-5.64-3.59-11.8-6.28-16.25-11.71-7.54-9.21-5.88-10.07-10.93-19.15-2.46-4.42-3.24-9.11-4.14-13.94-.35-1.86-1.39-3.04-1-5.28.49-2.81-2.59-5.18-4.26-6.87l-3.68-3.72c-1.33-1.34-3.03-2.39-4.23-3.92-3.13-3.99-4.86-9.37-5.14-14.42-.1-1.83,3.51-10.73,4.62-12.55l-1.02-13.68c-3.47-1.19-7.95-7.59-8.21-10.6-.42-4.83-.01-9.63.93-14.4.42-2.12,1.69-3.2,2.7-4.94.64-1.11,1.56-3.03,2.21-3.89l3.52-4.69c2.52-3.36,3.15-9.85,3.02-14.38-.42-15.23,7.41-26.47,16.46-37.88l13.38-16.87c7.74-9.76,29.26-23.53,31.59-26.98,4.31-6.37,8.22-2.41,13.71-7.86,13.84-13.76,25.33-17.11,44.23-21.03,12.63-2.62,24.79-1.73,37.3.06,9.18,1.31,17.02,4.58,25.48,7.69,6.44,2.37,10.73,5.6,16.33,9.24,9.93,6.44,21.34,10.54,30.38,18.59,6.07,5.41,18.09,10.61,22.27,18l3.68,6.51c2.21,3.91,4.55,7.49,6.98,11.31,4.62,7.28,7.86,15.16,11.78,22.76,5.5,1,6.08,7.77,10.07,15.36,1,1.91,3.41,2.71,4.03,5.42.24,1.04,2.5,1.62,2.93,3.08,1.92,6.54,4.03,13.32,3.5,20.3-.13,1.7-1.87,3.32-.95,5.25,1.16,2.42-1.74,4.31-1.81,5.9-.24,5.4-2.75,13.57-6.22,17.34-1.04,6.74-2.94,13.42-3.32,20.16-.15,2.75.91,5.46.5,8.63-.67,5.28-.44,10.49-1.91,15.85-2.68,9.77-7.96,17.88-13.96,25.85-3.35,4.45-8.01,6.39-11.72,10-9.87,9.6-18.75,19.86-31.18,27.28,12.12,13.61,19.41,24.29,24.13,41.71,2.55,9.44,3.6,18.77,5.43,28.37,1.07,5.57,3.3,10.63,4.97,16.07,3.9,12.67,7.47,25.03,9.67,38.16,2.39,14.23,3.78,35.71-4.48,48.65-1.53-6.15-3.38-11.79-6.04-17.65-.5-.46-.91.42-.11.7,3,14.6,4.64,29.21,5.44,44.18,1.04,19.46,4.34,29.12,2.45,50-.49,5.39-3.16,9.8-7.83,12.44s-9.33,3.83-14.51,4.12-10.64.31-16.02-.03c-5.88-.37-11.58-2.44-12.67-8.94-2.83-16.89,3.39-25.12-5.86-48.42-6.12-15.42-12.67-37.58-12.27-54.38-.08-.96-.71-1.01-.53,0-3.03,10.54-1.25,19.07.74,29.33.07.36-.51.54-.83.5-9-1.15-17.76-1.23-26.84-.9ZM113.22,9.36c-7.49,2.2-14.14,6.75-20.08,12.1l-6.44,5.8,40.95,1.47,23.53,1.27c21.53,1.01,41.31,4.97,62.62,10.27-1.91-8.1-5.15-15.68-11.31-21.23-8.54-7.7-19.21-12.24-30.73-13.91C151.43-.02,132.95,2.62,113.22,9.36ZM82.71,68.01c7.24,2.51,14.64,2.13,21.92.44,6.22-1.44,12.21-2.95,17.81-6.43-4.28-9.98-14.66-15.67-25.5-14.53-7.97.84-15.08,4.82-20.02,11.02-1.33,1.67-1.3,3.51-.19,5.23,1.36,2.1,3.44,3.21,5.97,4.27ZM270.35,101.31c3.42-3.65,4.26-8.74,4.25-13.67-.01-9.45-3.82-18.48-11.36-24.08-4.34-3.22-8.85-5.72-14.25-6.41-4.72-.61-9.72.98-13.14,4.26-8.04,7.7-11.25,25.57-11.71,36.31-.08,1.78,1.02,3.46,2.72,3.99,11.57,3.61,34.16,9.57,43.5-.39ZM67.43,98.91c1.54-1.26,2.39-3.17,1.76-5.14-3.46-10.91-12.63-24.42-25.8-21.61-8.6,1.84-16.23,7.11-20.88,14.47-4.29,6.8-6.99,14.08-6.69,22.12.17,4.69,2.44,9.62,6.89,11.29,4.07,1.53,8.63.78,12.68-.35,11.98-3.34,22.44-12.93,32.03-20.78ZM202.16,116.57c1.05-.55,1.6-1.64,1.09-2.74-8.84-19-25.52-36.34-47.33-38.49-16.66-1.64-33.02,4.26-45.07,15.64-3.19,3.01-5.35,5.72-3.14,9.09,9.52,14.49,24.77,23.95,41.97,26.56,18.61,2.82,36.15-1.46,52.5-10.06ZM300.51,149.06c4.32-.5,1.91-5.6,2.4-8.08.13-.68,1.48-1.12,1.43-2.03-.36-6.5-1.56-12.87-4.08-18.86-4.24-.57-2.05-6.2-6.43-5.98l-3.73-8.79c-2.12,13.91-4.94,27.66-8.92,41.3-.6,2.07.26,3.04,1.55,4.35,4.33,4.44,8.54,8.91,14.37,11.49,3.28-3.84,4.4-8.69,3.42-13.42ZM6.12,137.47c-.96-.1-1.74.65-2.08,1.76-1.18,3.88-3.7,17.99,1.68,18.95-.17,2.46,2.68,4.32,5.1,3.8,1.54-2.52,2.79-5.46,2.33-8.47-1.03-6.82-2.93-13.25-4.8-19.7-1.43,1.09-2.23,2.28-2.23,3.66ZM158.83,200.49c2.64-2.42,4.92-4.69,6.98-7.52,1.06-1.45,1.22-3.22-.12-4.71-11.9-13.29-25.31-24.87-40.61-34.16-21.81-13.23-50.28-20.13-74.37-9.52-10.22,4.5-18.13,11.92-23.3,21.76-2.5,4.76-4.53,9.42-5.35,14.89l5.68,12.68c4.52,10.08,11.39,18.57,20.03,25.47,11.38,9.08,24.86,14.29,39.54,14.55,25.65.47,53.21-16.7,71.52-33.44ZM237.83,177.48c4.37-3.16,7.59-6.7,10.03-11.32.78-1.48,1.18-2.91.14-4.48-2.75-4.12-6.02-7.64-10.15-10.42-14.79-9.93-30.64-2.74-42.61,7.8-3.4,2.99-6.47,6.23-8.37,10.37-.53,1.15.79,2.25,1.34,3.14,14.36,10.9,33.5,16.58,49.62,4.92ZM8.56,188.48c-3.59,2.14,1.72,16.83,5.78,17.29.86,1.03,1.65,2.37,3.29,2.71-1.41-8.03-4.15-15.48-7.8-22.65-1.18.64-1.03,1.55-1.28,2.66ZM274.98,238.44c1.25-.36,1.72-1.79,2.64-2.81,6.31-6.99,10.71-15.16,12.76-24.15,1.29-5.68,2.44-11.69,0-17.48-3.83-3.47-21.61,10.47-25.23,13.36-6.82,5.45-13.19,11-19.02,17.46-1.25,1.38-1.59,2.89-1.02,4.65,1.98,6.02,5.82,11.27,11.24,14.56,7.26,4.4,14.41-.37,18.62-5.58ZM226.95,212.52c1.05-1.21,1.58-3.12.43-4.34-2.35-2.51-5.09-4.68-8.35-5.92-18.93-7.15-38.28,8.47-38.21,11.86.02.85.38,1.83,1.22,2.52,4.35,3.61,9.34,6.31,14.98,7.46,11.09,2.25,22.77-3.34,29.94-11.59ZM30.4,239.38l2.29,4.67c7.27,14.86,7.62,15.29,23.39,23.92,3.64,1.99,7.56,3.97,12.01,4.09,4.8.14,9.44-1.3,12.51-4.78.42-.48.74-.9.81-1.39.27-1.92-15.17-12.89-17.72-14.9l-21.43-15.98c-5.15-3.84-10.21-7.35-15.69-10.68-.46,5.5,1.56,10.28,3.85,15.04ZM184.78,271.5c7.59-4.52,14.14-10.4,19.16-17.67,2.73-3.95,4.4-8.14,6.56-12.85-8.47-2.31-16.62-3.05-25.23-3.29-11.74-.33-22.94,1.76-34.04,5.51s-25.69,10.79-31.5,21.38c-.44.81-.82,1.88-.52,2.63.19.49.77,1.2,1.49,1.62,19.68,11.32,43.79,14.77,64.09,2.67ZM104.12,294.42c6.88,4.36,15.3,5.16,23.46,3.91,5.75-.88,11.8-1.49,16.72-6.47-5.21-3.97-47.95-9.09-49.09-5.18-.71,2.46,6.79,6.61,8.91,7.74ZM160.76,404.47c-1.35,1.36-2.53,3.21-3.77,5.14-4.65-2.41.3-9.33,2.52-11.64,13.15-13.65,20.27-19.22,37.12-27.84,8.1-4.14,16.14-7.69,24.97-10,5.24-1.37,10.35-1.37,15.64-1-4.99-2.64-10.11-2.83-15.44-2.8l-8.24-32.91c-.24-.98-.09-2.08-.77-3.02-.43,1.22-.09,2.14-.03,3.06.7,11.23,2.13,22.35,5.21,33.71-12.46,3.5-32.58,13.58-42.86,21.37-6.84,5.18-12.75,11.07-18.57,17.32-4.54,4.87-7.01,11.05-2.52,16.72-.55,4.29-2.69,8.46-2.87,12.91-.21,5.06.81,9.84,4.36,13.52s8.55,6.5,13.7,7.69,9.75-1.26,12.02-5.9l7.62-15.55c5.39-11,21.36-16.53,32.24-19.67,11-3.17,23.07-6.93,32.22-13.62,5.72.97,10.24,3.6,15.32,6.72-2.52-4.33-6.49-7.33-11.71-9.65,5.1-5.73,8.14-12.34,8.34-19.99.03-1.08.44-2.18-.05-3.54-.63.99-.4,2.11-.71,3.52-2.01,8.9-7.34,16.27-15.32,21.2-20.12,12.43-43.37,11.68-58.03,25.86-8.11,7.84-9.16,16.16-13.83,23.98-4.07,6.82-14.39.7-18.43-3.02-8.84-8.11-1.08-23.09,1.98-32.58M82.55,398.17c-.88-.65-1.29-2.18-2.79-2.6,1.41,1.34,1.68,2.4,2.71,3.02,7.62,12.03,7.86,20.6,15,33.7,2.9,5.32,7.58,11.34,14.38,10.51s12.69-2.85,18.12-6.24c3.84-2.4,5.3-6.09,4.93-10.53-.47-5.66-1.95-10.92-3.93-16.32,3.25.86,5.4,2.88,8.71.73,1.64-1.06,2.47-3.02,2.59-5.31.16-3.31-1.45-6.35-3.5-9.08-4.31-5.74-9.33-10.71-14.1-16.07-1.27-1.43-1.74-2.4-1.49-4.41,1.78-14.01,1.36-28.03-2.04-41.75-2.95,5.19-5.32,9.99-7.74,15.08-1.66,3.5-3.04,7.01-5.28,10.31-5.75-4.68-12.25-7.16-19.48-6.4,8.31,2.02,15.67,6.21,20.86,13.13l11.31,15.08,13.13,14.72c2.34,2.63,6.41,8.46,3.9,11.43-1.51,1.79-6.83,1.22-8.42-.74s-1.81-4.54-3.79-6.33c1.9,8.69,4.37,16.77,5.43,25.36.46,3.74-.57,6.54-3.83,8.4-4.83,2.75-10.32,4.44-15.97,5.09-2.67.31-4.93-.94-6.61-2.94-2.96-3.53-5.25-7.46-7.04-11.75l-5.33-12.77c-2.19-5.25-5.31-10.09-9.75-13.33Z"/>
      <path class="cls-1" d="M119.61,296.86c-3.18,1.95-7.14.88-9.48-1.94,3.14-1.3,6.72-.48,9.48,1.94Z"/>
      <g>
        <path class="cls-3" d="M158.83,200.49c-18.3,16.74-45.87,33.91-71.52,33.44-14.68-.27-28.16-5.47-39.54-14.55-8.64-6.89-15.51-15.39-20.03-25.47l-5.68-12.68c.82-5.47,2.85-10.13,5.35-14.89,5.17-9.84,13.07-17.26,23.3-21.76,24.09-10.61,52.57-3.71,74.37,9.52,15.31,9.29,28.71,20.87,40.61,34.16,1.34,1.49,1.18,3.26.12,4.71-2.07,2.82-4.34,5.1-6.98,7.52ZM87.2,220.23c9.12-2.49,15.62-9.58,18.61-18.14,6.23-17.83-2.22-39.35-19.24-47.38-7.96-3.76-17.01-3.83-24.65.59s-12.57,11.79-14.19,20.5c-2.63,14.15,2.38,29.1,13.48,38.26,7.3,6.03,16.66,8.72,26.01,6.17Z"/>
        <path class="cls-3" d="M202.16,116.57c-16.35,8.6-33.89,12.88-52.5,10.06-17.2-2.61-32.45-12.07-41.97-26.56-2.21-3.37-.05-6.08,3.14-9.09,12.06-11.38,28.42-17.28,45.07-15.64,21.82,2.15,38.49,19.49,47.33,38.49.51,1.1-.04,2.19-1.09,2.74ZM172.4,100.08c0-11.23-9.11-20.34-20.34-20.34s-20.34,9.11-20.34,20.34,9.11,20.34,20.34,20.34,20.34-9.11,20.34-20.34Z"/>
        <path class="cls-3" d="M113.22,9.36c-.26,1.28-4,2.56-3.58,5.03.54,3.15,9.35,3.77,12.3,3.82,14.31.27,28.39-1.51,42.07-5.49,2.67-.78,8.75-2.9,9.04-5.53.09-.79-.81-1.4-1.3-2.08,11.51,1.67,22.19,6.21,30.73,13.91,6.16,5.55,9.39,13.13,11.31,21.23-21.3-5.3-41.09-9.25-62.62-10.27l-23.53-1.27-40.95-1.47,6.44-5.8c5.94-5.34,12.59-9.9,20.08-12.1Z"/>
        <path class="cls-3" d="M184.78,271.5c-20.3,12.1-44.41,8.65-64.09-2.67-.72-.42-1.3-1.13-1.49-1.62-.29-.74.08-1.82.52-2.63,5.81-10.58,20.39-17.62,31.5-21.38s22.3-5.84,34.04-5.51c8.6.24,16.75.98,25.23,3.29-2.15,4.7-3.83,8.9-6.56,12.85-5.02,7.27-11.57,13.14-19.16,17.67ZM177.41,271.74c6.15-4.57,7.32-12.14,2.95-17.97-7.91-10.56-28.58-9.31-35.76,2.06-3.97,6.28-1.92,14.05,4.73,17.72,8.7,4.8,19.95,4.24,28.09-1.8Z"/>
        <path class="cls-3" d="M270.35,101.31c-9.34,9.96-31.93,4.01-43.5.39-1.7-.53-2.79-2.22-2.72-3.99.46-10.73,3.66-28.61,11.71-36.31,3.43-3.28,8.43-4.86,13.14-4.26,5.39.69,9.91,3.2,14.25,6.41,7.55,5.59,11.35,14.63,11.36,24.08,0,4.93-.83,10.02-4.25,13.67ZM263.13,97.9c3.15.86,5.89-.92,6.82-3.91,3.24-10.42-4.05-24.41-13.26-30.68-3.33-2.26-9.48-4.39-11.82.5-1.34,2.81-1.49,5.72-.88,8.8,1.73,8.62,6.28,16.34,13,21.98,1.79,1.5,3.72,2.64,6.13,3.3Z"/>
        <path class="cls-3" d="M67.43,98.91c-9.59,7.85-20.05,17.44-32.03,20.78-4.05,1.13-8.62,1.88-12.68.35-4.45-1.67-6.71-6.61-6.89-11.29-.3-8.04,2.4-15.32,6.69-22.12,4.64-7.36,12.27-12.63,20.88-14.47,13.17-2.81,22.34,10.7,25.8,21.61.63,1.98-.23,3.89-1.76,5.14ZM34.55,109.87c7.42-6.66,11.64-16.12,11.38-26-.07-2.58-1.23-5.46-3.29-6.79-6.67-4.29-24.54,11.71-20.82,31.31.65,3.42,3.19,5.34,6.54,4.72,2.24-.41,4.26-1.52,6.18-3.25Z"/>
        <path class="cls-3" d="M237.83,177.48c-16.13,11.66-35.27,5.98-49.62-4.92-.55-.89-1.87-1.98-1.34-3.14,1.9-4.13,4.97-7.38,8.37-10.37,11.96-10.54,27.82-17.73,42.61-7.8,4.13,2.77,7.4,6.29,10.15,10.42,1.05,1.57.65,3-.14,4.48-2.44,4.62-5.66,8.16-10.03,11.32ZM230.48,175.36c4.53-4.88,5.51-11.79,2.85-17.57-2.8-6.06-9.26-8.64-15.56-6.38-4.88,1.75-8.17,6.39-9.13,10.96-1.14,5.41.48,10.82,4.61,14.4,5.02,4.35,12.57,3.58,17.22-1.42Z"/>
        <path class="cls-3" d="M290.38,211.48c-.85-.45.61-9.32-1.9-10.3-.49-.19-1.5-.06-2.13.6-8.33,8.75-14.45,19.54-17.43,31.36-.56,2.22-1.26,5.22-.13,7.06,1.67,1.78,5.84-2.74,6.18-1.75-4.21,5.22-11.36,9.98-18.62,5.58-5.43-3.29-9.27-8.54-11.24-14.56-.58-1.76-.23-3.27,1.02-4.65,5.83-6.45,12.2-12.01,19.02-17.46,3.62-2.89,21.4-16.83,25.23-13.36,2.44,5.8,1.29,11.8,0,17.48Z"/>
        <path class="cls-2" d="M171.76,5.12c.49.68,1.39,1.28,1.3,2.08-.3,2.63-6.37,4.75-9.04,5.53-13.68,3.98-27.76,5.76-42.07,5.49-2.95-.06-11.75-.67-12.3-3.82-.43-2.47,3.32-3.75,3.58-5.03C132.95,2.62,151.43-.02,171.76,5.12ZM150.12,5.83c-2.18-2.47-19.76-.86-19.6,1.91.2,3.57,21.7.47,19.6-1.91Z"/>
        <path class="cls-3" d="M293.83,114.12l6.68,34.94c.98,4.73-.14,9.58-3.42,13.42-5.83-2.58-10.04-7.05-14.37-11.49-1.28-1.32-2.15-2.29-1.55-4.35,3.98-13.63,6.8-27.39,8.92-41.3l3.73,8.79Z"/>
        <path class="cls-3" d="M56.07,267.97c.73-.49,1.65.26,2.68-.19.53-1.46.19-3.15-.5-4.71-3.37-7.65-8.44-14.23-14.3-20.19-2.15-2.19-9.35-9.23-12.07-7.38-1.44.97-.74,3.06-1.49,3.88-2.29-4.76-4.31-9.54-3.85-15.04,5.48,3.33,10.54,6.84,15.69,10.68l21.43,15.98c2.55,2.01,17.99,12.98,17.72,14.9-.07.49-.39.91-.81,1.39-3.07,3.48-7.72,4.91-12.51,4.78-4.44-.13-8.37-2.1-12.01-4.09Z"/>
        <path class="cls-3" d="M82.71,68.01c-2.53-1.06-4.61-2.18-5.97-4.27-1.11-1.71-1.13-3.56.19-5.23,4.93-6.2,12.05-10.19,20.02-11.02,10.84-1.14,21.22,4.55,25.5,14.53-5.6,3.48-11.59,4.99-17.81,6.43-7.28,1.69-14.68,2.07-21.92-.44ZM92.45,67.34c6.05-.37,11.26-4.91,12.38-10.59.44-2.21-.11-4.27-1.34-5.67s-3.06-2.1-5.17-1.92c-5.79.51-11.04,4.53-12.37,10.18-.51,2.18-.21,4.42,1.3,5.99,1.01,1.05,2.92,2.16,5.2,2.02Z"/>
        <path class="cls-3" d="M226.95,212.52c-7.17,8.25-18.85,13.83-29.94,11.59-5.64-1.14-10.63-3.85-14.98-7.46-.84-.7-1.2-1.67-1.22-2.52-.07-3.4,19.28-19.01,38.21-11.86,3.27,1.23,6,3.41,8.35,5.92,1.14,1.22.62,3.13-.43,4.34ZM214.52,213.61c.74-4.4-1.33-7.98-5.12-9.54-6.66-2.74-14.24.88-16,7.89-1.36,5.4,1.88,10.17,7.27,11.06,6.39,1.06,12.74-2.74,13.86-9.41Z"/>
        <path class="cls-2" d="M290.38,211.48c-2.04,8.99-6.45,17.15-12.76,24.15-.92,1.02-1.39,2.46-2.64,2.81-.35-.99-4.51,3.53-6.18,1.75-1.13-1.84-.43-4.84.13-7.06,2.97-11.82,9.09-22.61,17.43-31.36.62-.65,1.64-.79,2.13-.6,2.51.99,1.05,9.86,1.9,10.3ZM285.73,216.47c-3.3-1.05-9.69,12.52-7.59,13.72,2.95,1.69,10.56-12.78,7.59-13.72Z"/>
        <path class="cls-2" d="M56.07,267.97c-15.77-8.63-16.12-9.06-23.39-23.92l-2.29-4.67c.76-.82.06-2.9,1.49-3.88,2.72-1.85,9.92,5.19,12.07,7.38,5.85,5.97,10.92,12.55,14.3,20.19.69,1.56,1.03,3.25.5,4.71-1.03.45-1.95-.3-2.68.19ZM47.55,259.42c1-2.61-4.99-10.07-8.73-10.26-3.15,2.76,7.73,12.89,8.73,10.26Z"/>
        <path class="cls-3" d="M127.58,298.33c.66-1.39.35-3.07-1.15-4.19-5.36-4.02-12.11-6.2-18.88-5.93-1.69.07-3.65.71-4.32,2.11-.75,1.58.54,2.83.89,4.1-2.12-1.13-9.62-5.28-8.91-7.74,1.13-3.91,43.88,1.21,49.09,5.18-4.92,4.98-10.97,5.59-16.72,6.47Z"/>
        <path class="cls-2" d="M300.51,149.06l-6.68-34.94c4.39-.22,2.2,5.4,6.43,5.98,2.52,5.99,3.72,12.36,4.08,18.86.05.91-1.29,1.35-1.43,2.03-.49,2.47,1.92,7.57-2.4,8.08Z"/>
        <path class="cls-2" d="M127.58,298.33c-8.16,1.25-16.58.45-23.46-3.91-.35-1.28-1.64-2.52-.89-4.1.67-1.41,2.63-2.05,4.32-2.11,6.77-.27,13.52,1.91,18.88,5.93,1.5,1.13,1.8,2.8,1.15,4.19ZM119.61,296.86c-2.76-2.42-6.34-3.24-9.48-1.94,2.35,2.81,6.31,3.89,9.48,1.94Z"/>
        <path class="cls-3" d="M5.73,158.18l1.33-19.1c.05-.78-.49-1.35-.93-1.6,0-1.38.8-2.57,2.23-3.66,1.87,6.45,3.77,12.88,4.8,19.7.45,3.01-.8,5.95-2.33,8.47-2.42.52-5.27-1.34-5.1-3.8Z"/>
        <path class="cls-2" d="M6.12,137.47c.44.26.98.82.93,1.6l-1.33,19.1c-5.38-.95-2.87-15.07-1.68-18.95.34-1.11,1.12-1.86,2.08-1.76Z"/>
        <path class="cls-3" d="M14.34,205.76c-2.16-5.49-3.71-11.2-5.46-16.99-.16-.13-.28-.22-.32-.3.25-1.11.09-2.02,1.28-2.66,3.65,7.17,6.38,14.62,7.8,22.65-1.64-.34-2.44-1.67-3.29-2.71Z"/>
        <path class="cls-2" d="M14.34,205.76c-4.06-.46-9.37-15.15-5.78-17.29.04.07.16.16.32.3,1.75,5.8,3.3,11.5,5.46,16.99Z"/>
        <path class="cls-2" d="M87.2,220.23c-9.34,2.55-18.7-.15-26.01-6.17-11.1-9.15-16.11-24.11-13.48-38.26,1.62-8.71,6.59-16.11,14.19-20.5s16.69-4.34,24.65-.59c17.03,8.03,25.47,29.55,19.24,47.38-2.99,8.56-9.49,15.65-18.61,18.14ZM84.47,194.95c3.23-6.87.96-15.31-5.33-19.25-5.67-3.56-12.76-1.58-15.73,4.33-3.19,6.35-1.49,14.16,3.95,18.67,2.82,2.34,6.3,3.11,9.96,2.21,2.68-.66,5.58-2.63,7.15-5.96Z"/>
        <path class="cls-2" d="M172.4,100.08c0,11.23-9.11,20.34-20.34,20.34s-20.34-9.11-20.34-20.34,9.11-20.34,20.34-20.34,20.34,9.11,20.34,20.34ZM159.53,99.75c0-4-3.24-7.24-7.24-7.24s-7.24,3.24-7.24,7.24,3.24,7.24,7.24,7.24,7.24-3.24,7.24-7.24Z"/>
        <path class="cls-2" d="M177.41,271.74c-8.14,6.05-19.39,6.6-28.09,1.8-6.65-3.67-8.7-11.44-4.73-17.72,7.18-11.36,27.86-12.62,35.76-2.06,4.37,5.84,3.2,13.41-2.95,17.97ZM168.62,268.12c1.47-1.23,1.94-2.81,1.63-4.47-.2-1.09-1.06-2.37-2.44-3.08-3.41-1.77-7.61-1.31-10.46,1.24-1.21,1.09-1.72,2.55-1.48,4.14.16,1.06.96,2.24,2.26,3.02,3.2,1.94,7.45,1.69,10.49-.84Z"/>
        <path class="cls-2" d="M263.13,97.9c-2.4-.65-4.34-1.79-6.13-3.3-6.72-5.65-11.27-13.37-13-21.98-.62-3.08-.46-6,.88-8.8,2.33-4.9,8.49-2.77,11.82-.5,9.21,6.27,16.49,20.25,13.26,30.68-.93,2.99-3.67,4.77-6.82,3.91ZM259.03,70.12c-1-.58-2.28-.47-3.01.17-3.62,3.17,3.9,16.59,8.41,14.28,2.15-1.1,1.68-10.36-5.4-14.45Z"/>
        <path class="cls-2" d="M34.55,109.87c-1.92,1.72-3.94,2.83-6.18,3.25-3.36.62-5.89-1.3-6.54-4.72-3.72-19.6,14.14-35.6,20.82-31.31,2.06,1.33,3.23,4.21,3.29,6.79.25,9.88-3.97,19.33-11.38,26ZM34.27,86.71c-.66-.43-1.89-.56-2.77,0-5.78,3.74-7.01,12.12-4.19,13.29,4.74,1.97,10.64-10.93,6.96-13.3Z"/>
        <path class="cls-2" d="M230.48,175.36c-4.65,5-12.2,5.77-17.22,1.42-4.14-3.58-5.75-8.99-4.61-14.4.96-4.57,4.25-9.21,9.13-10.96,6.29-2.26,12.76.32,15.56,6.38s1.68,12.69-2.85,17.57ZM228.23,165.57c.2-3.24-1.99-5.8-4.82-5.78s-4.97,2.57-4.87,5.58,2.13,5.18,4.86,5.17c2.51-.01,4.64-2.01,4.83-4.98Z"/>
        <path class="cls-1" d="M150.12,5.83c2.1,2.38-19.4,5.48-19.6,1.91-.16-2.77,17.42-4.38,19.6-1.91Z"/>
        <path class="cls-2" d="M92.45,67.34c-2.29.14-4.19-.97-5.2-2.02-1.51-1.56-1.82-3.81-1.3-5.99,1.33-5.64,6.58-9.67,12.37-10.18,2.12-.19,3.98.55,5.17,1.92s1.78,3.46,1.34,5.67c-1.12,5.68-6.33,10.22-12.38,10.59ZM97.34,54.77c-1.28-1.65-3.67-.7-4.83.35-1.04.95-2.12,2.81-.83,4.22,1.11,1.21,3.3.53,4.49-.44.89-.73,2.35-2.62,1.17-4.13Z"/>
        <path class="cls-2" d="M214.52,213.61c-1.11,6.67-7.47,10.47-13.86,9.41-5.39-.89-8.62-5.66-7.27-11.06,1.76-7.01,9.34-10.63,16-7.89,3.79,1.56,5.85,5.13,5.12,9.54ZM205.59,217.2c2.07-.76,3.07-2.75,2.52-4.43-.59-1.77-2.63-2.59-4.57-2.08s-3.38,2.72-2.73,4.62c.59,1.7,2.68,2.67,4.78,1.89Z"/>
        <path class="cls-1" d="M285.73,216.47c2.97.94-4.63,15.42-7.59,13.72-2.1-1.21,4.29-14.77,7.59-13.72Z"/>
        <path class="cls-1" d="M47.55,259.42c-1,2.63-11.89-7.5-8.73-10.26,3.75.2,9.73,7.65,8.73,10.26Z"/>
        <path class="cls-1" d="M84.47,194.95c-1.57,3.33-4.46,5.3-7.15,5.96-3.65.9-7.14.13-9.96-2.21-5.44-4.51-7.14-12.32-3.95-18.67,2.97-5.9,10.06-7.88,15.73-4.33,6.28,3.94,8.56,12.38,5.33,19.25Z"/>
        <circle class="cls-1" cx="152.29" cy="99.75" r="7.24"/>
        <path class="cls-1" d="M168.62,268.12c-3.04,2.53-7.29,2.78-10.49.84-1.29-.78-2.09-1.96-2.26-3.02-.24-1.58.27-3.05,1.48-4.14,2.85-2.55,7.05-3.01,10.46-1.24,1.38.71,2.24,1.99,2.44,3.08.31,1.67-.16,3.25-1.63,4.47Z"/>
        <path class="cls-1" d="M259.03,70.12c7.07,4.1,7.55,13.35,5.4,14.45-4.51,2.31-12.03-11.11-8.41-14.28.73-.64,2.01-.76,3.01-.17Z"/>
        <path class="cls-1" d="M34.27,86.71c3.68,2.37-2.22,15.27-6.96,13.3-2.82-1.17-1.6-9.56,4.19-13.29.88-.57,2.11-.43,2.77,0Z"/>
        <path class="cls-1" d="M228.23,165.57c-.19,2.97-2.32,4.96-4.83,4.98-2.74.01-4.77-2.3-4.86-5.17-.1-3.01,2.01-5.56,4.87-5.58s5.02,2.54,4.82,5.78Z"/>
        <path class="cls-1" d="M97.34,54.77c1.17,1.51-.28,3.4-1.17,4.13-1.19.97-3.38,1.65-4.49.44-1.28-1.41-.21-3.26.83-4.22,1.16-1.06,3.55-2,4.83-.35Z"/>
        <path class="cls-1" d="M205.59,217.2c-2.1.77-4.19-.19-4.78-1.89-.66-1.9.69-4.09,2.73-4.62s3.99.32,4.57,2.08-.45,3.67-2.52,4.43Z"/>
      </g>
    </g>
  </g>
</svg>