<?xml version="1.0" encoding="UTF-8"?>
<svg id="Capa_2" data-name="Capa 2" xmlns="http://www.w3.org/2000/svg" viewBox="0 0 80.14 140.6">
  <g id="Capa_1-2" data-name="Capa 1">
    <g>
      <path d="M18.08,134.12c.15-1.32.94-2.32,1.93-3.05l4-2.96c-.57-.88-1.19-1.55-1.89-2.27l-5.39-5.57c-1.48-1.53-2.71-3.17-3.89-4.94-2.73-4.1-2.91-9.49,1.2-12.63.93-.71,1.9-1.19,3.08-1.63l3.35,3.41c.6,2.42,1.15,4.74,2.12,7.04.37.87.96,1.63,1.76,2.14,1.03.65,2.2,1.2,3.46,1.29,1.79.13,3.59-.83,4.52-2.32.84-1.35.74-2.92.36-4.5,1.14,0,2.07-.69,2.14-1.9.14-2.28-3.08-5.75-4.84-7.33l2.01.03c-.33-4.58-.49-8.36-2.23-12.79l-3.53,6.99c-1.29-1.03-2.65-1.94-4.42-1.83,4.43,1.79,5.46,6.04,7.57,8.5.78.91,5.47,5.41,4.04,6.93-.28.3-1.04.19-1.31-.11l-1.29-1.48c.59,2.95,2.3,6.36-.84,8.12-1.25.7-2.46.64-3.75.1-1.17-.49-2.13-1.17-2.63-2.43-.79-2.02-1.38-4.08-1.85-6.23-.12-.54-.39-1.03-.77-1.42l-3.22-3.28c-2.77-2.82-3.24-5.75-1.77-9.44,2.08-5.24,4.7-10.13,7.75-14.97-.56-.36-1.21-.74-1.78-1.09l-4.65-2.8c-5.5-3.31-7.35-3.03-10.89-11.64-.65-1.58-1.42-3.13-2.3-4.6-.45-.75-1.32-1.36-1.81-2.05-1.57-2.27-1.47-4.73-1.12-7.34.17-1.26-.2-2.93-.26-4.2-1.49-3.46-1.22-7.27,1.1-10.27.59-3,1.79-5.69,2.86-8.55.33-.87.22-1.97.4-2.9.94-4.9,4.29-8.79,9.03-10.36.59-.19,1.36-.37,1.85-.75,3.11-2.39,6.42-4.22,10-5.8,1.25-.55,2.36-1.11,3.66-1.55,8.25-2.78,17.15-2.07,24.92,1.79,1.72.85,3.35,1.44,4.99,2.48l2.19.4c3.65.66,6.6,2.8,8.59,5.84,1.14,1.74,1.14,3.77,2.05,5.55,1.15,2.23,2.2,4.75,3.62,6.78,1.8,2.59,3.31,4.88,3.82,8.08s-.43,5.86-.97,8.92c-.56,3.16-1.13,6.4-1.69,9.57-.92,5.17-3.07,9.37-6.86,12.99-3.12,2.98-5.91,6.35-9.95,8.47,1.82,1.83,2.83,3.68,3.54,6.03,1.21,4.02,1.87,8.14,2.1,12.36.15,2.69.14,6.43-2.13,8.16-1.25.95-2.62,1.62-4.11,2.14l-8.28,2.87c-1.06.37-2.01.74-3.06,1.17-.35.14-.69.56-.81.92-1.14,3.26-2.41,2.78-3.12,6.44-.25,1.3-1.32,2.56-2.7,2.58-2.68.04-4.51-2.26-4.45-4.87.05-2.37.88-4.46,2.03-6.5,1.2-2.14,2.73-3.82,4.87-5.1,3.64-2.18,7.27-4.24,11.22-5.8l2.36-.93s.18-.16.14-.17-.24-.11-.29-.11l-1.99.09c-.46-3.32-.99-6.61-2.12-9.67-.02,1.82.21,3.38.37,5.05l.49,4.91c-3.57,1.65-11.39,5.36-13.84,8.06-2.7,2.98-5.13,7.93-4.15,12.09.5,2.13,2.34,3.65,4.45,4.08,1.85.37,3.62-.67,4.38-2.36.91-1.99.16-2.06,1.63-4.06.8-1.09,1.4-2.16,1.88-3.46.53-.26,1.2-.51,1.82-.71-3.33,5.22-1.52,9.41.94,14.7-5.66.37-11.29-.38-16.72-1.93l-2.79-.8,4.28,9.09c.89,1.89,1.29,3.89,1.13,5.96-.18,2.38-2.71,2.7-4.7,3.1-3.6.72-9.77,1.82-13.19.8-1.13-.34-1.78-1.29-1.64-2.56ZM33.87,4.42c-.44-.29-.51-.97-.16-1.32l.85-.85c-2.96.4-5.74,1.54-8.46,2.95,6.21,5.02,21.98,4.93,28.04,0-2.8-1.44-5.6-2.6-8.54-2.98,4.74,3.13-7.34,5.08-11.73,2.2ZM39.19,2.52c-.71-.78-3.39-.12-3.16.35.41.85,3.72.26,3.16-.35ZM69.63,14.31c-.96-2.91-3.52-5.19-6.57-5.96,2.4,1.81,4.38,3.74,6.57,5.96ZM34.25,15.01c-.97-1.48-2.19-2.56-3.79-3.17-3.22-1.24-6.83.54-8.99,2.92.89,1.86,2.61,2.91,4.58,3.16,2.95.37,5.94-.97,8.2-2.91ZM13.31,11.96c-3.28,1.38-5.61,4.39-6.23,7.72,1.98-2.87,3.9-5.34,6.23-7.72ZM70.88,23.49c.42-1.8.19-3.58-.37-5.34-.75-.96-1.51-1.86-2.46-2.62-2.69-2.15-6.45-3.04-8.77.14-1.56,2.28-1.83,5.55-2.06,8.29,1.97,1.22,3.99,2.21,6.24,2.83,3.11.85,6.62.21,7.43-3.31ZM20.81,23.48c-1.45-3.34-4.23-6.86-8.36-5.3-2.17.82-3.84,2.4-5.02,4.4-1.08,1.83-1.77,3.82-1.65,5.96.83,1.46,2.4,2.08,4.07,1.96,4.37-.33,8-4.01,10.95-7.02ZM53.67,28.51c-2.52-6.3-7.94-10.9-15.08-9.53-4.01.93-5.91,2.22-8.8,5.21,2.01,3.61,5.14,6.42,9.12,7.74,5.06,1.68,10.66-.04,14.75-3.42ZM78.43,36.71c-.28.33-.57.67-.8.73s-.69-.32-.82-.59c-1.02-2.2-1.35-4.77-.88-7.14.04-.2.4-.66.59-.61s.48.19.82.34c-.53-1.38-1.39-2.48-2.55-3.52-.79,1.76-1.32,3.5-1.63,5.37l-.68,4.07c1,1.74,2.87,4.61,4.6,5.45.77-1.42,1.25-2.72,1.37-4.1ZM77.28,33.02c.47-.85.26-1.79-.45-2.34-.39.8-.38,1.91.45,2.34ZM1.72,39.19c.11.89.45,1.59,1.06,2.31.97-.61,2.02-2.9,2.44-3.93-.31-1.79-.83-3.41-1.66-5.02-.83.71-1.31,1.48-1.47,2.38l.53-.51c.8-.78,1.27,2.75.23,5.07-.08.17-.55.33-.66.21l-.45-.5ZM31.92,57.55c5.19-2.34,8.97-6.13,12.17-10.73-3.92-6.01-9.14-11.19-16.15-13.18-6.01-1.7-12.31.02-16.61,4.55-2.04,2.15-3.49,4.67-4.53,7.49,4.21,10.58,13.83,16.79,25.13,11.87ZM68.58,40.41c-2.5-4.09-6.15-6.19-10.99-5.08-3.66,1.37-5.47,3.27-7.69,6.39,1.76,2.2,3.97,3.71,6.59,4.62,5.13,1.78,9.97-1.15,12.09-5.93ZM3.36,52.06c.34.93.91,1.4,1.78,1.79.19-1.07.55-2.3.25-3.33-.44-1.53-1.36-2.83-2.48-4.02-.5.96-.48,1.81-.42,2.65.2-.45.33-.76.58-1.14,1.1,1.36,1.34,3.01,1.27,4.64l-.98-.59ZM67.37,63.46c1.07-.35,2.01-.95,2.82-1.72,3.43-3.27,5.31-7.79,5.36-12.56-4.48-.85-10.79,5.61-13.32,8.9.14,1.43.55,2.8,1.36,4,.85,1.26,2.21,1.9,3.78,1.39ZM59.88,53.34c-1.56-2.21-4.08-3.63-6.77-3.21-2.28.36-4.12,1.81-5.48,3.57.84,1.14,1.85,1.89,3.03,2.54,3.51,1.95,7.13.23,9.22-2.91ZM15.8,68.17c-.63.16-1.24-.25-1.89-.33,2.57,1.96,5.63,2.93,8.15.35l-2.72-3.08c-2.26-2.56-8.01-7.29-11.68-7.48.48,2.46,1.31,4.72,2.89,6.63-.12-.87-.45-1.59-.39-2.33.06-.67.62-1.12,1.27-1,3.31.58,6.55,6.69,4.37,7.25ZM54.7,61.93c-8.13-4.13-18.15-2.34-22.8,6.07,2.5,1.89,5.33,3.14,8.45,3.47,6.87.74,11.74-3.49,14.35-9.54ZM12.64,64.33c.35-.37.07-1.03-.18-1.34-.2-.25-.72-.63-1.07-.42-.48.29-.1.99.11,1.31.2.3.76.84,1.13.45ZM34.47,76.27c-.06.19-.24.43-.45.74,1.94.03,3.92-.39,5.77-1.43-4.02-1.92-11.53-3.86-15.77-2.15,1.27,1.12,2.62,1.83,3.97,2.36-.09-.39-.18-.79-.08-.97s.48-.48.71-.52c3.01-.57,6.12,1.1,5.85,1.98Z"/>
      <path d="M55.83,136.75c.16-1.33.67-2.4,1.17-3.54,1.07-2.4.97-2.9-.36-5.54l-4.4-8.76c-.77-1.54-1.32-3.08-1.79-4.73-.88-3.09-.13-6.31,2.06-8.63.56-.59,1.24-.93,2-1.19l5.18-1.76c2.42-.82,5.07.44,7.53,1.33-1.1-1.3-2.55-2.07-4.35-2.64l1.23-.78c1.45-.92,2.44-2.31,2.84-4,.86-3.6.19-7.66-.18-11.36,2.24,5.46,3.79,11.51,4.97,17.39.98,4.91,1.33,11.86-3.22,15.38-.84-2.35-1.81-5.28-3.84-7.01,1.38,3,2.4,5.89,3.11,9.05l2.19,9.81c.37,1.68.62,3.33.62,5.02,0,1.11-.39,2.03-1.14,2.78-1.57,1.57-3.6,2.49-5.81,2.81-1.87.28-3.73.32-5.54-.17-1.55-.42-2.48-1.79-2.27-3.47Z"/>
      <path d="M30.7,50.09c-1.18,2.74-3.51,4.49-6.08,5-3.07.61-5.92-.43-7.94-2.66-3.25-3.6-3.25-9.08-.02-12.67,2.99-3.31,7.92-3.67,11.39-.84,3.27,2.66,4.32,7.25,2.64,11.17ZM21.49,42.85c.04-.85-.33-1.55-.85-1.98-.55-.45-1.31-.67-2.04-.46-1.15.33-1.81,1.44-1.72,2.58.08,1.03.81,2.03,1.98,2.21,1.36.21,2.57-.89,2.63-2.35Z"/>
      <path d="M46.87,25.58c0,2.78-2.25,5.04-5.04,5.04s-5.04-2.25-5.04-5.04,2.25-5.04,5.04-5.04,5.04,2.25,5.04,5.04ZM41.26,23.68c0-.73-.59-1.32-1.32-1.32s-1.32.59-1.32,1.32.59,1.32,1.32,1.32,1.32-.59,1.32-1.32Z"/>
      <path d="M47.3,68.34c-1.57,2-4.46,2.5-6.61,1.34-1.19-.64-1.93-1.77-2.09-2.94-.18-1.31.34-2.55,1.32-3.48,1.65-1.56,4.21-1.87,6.2-.75,2.1,1.18,2.75,3.84,1.19,5.83ZM42.57,65.1c0-.67-.55-1.22-1.22-1.22s-1.22.55-1.22,1.22.55,1.22,1.22,1.22,1.22-.55,1.22-1.22Z"/>
      <path d="M64.27,40.96c0,2.32-1.88,4.2-4.2,4.2s-4.2-1.88-4.2-4.2,1.88-4.2,4.2-4.2,4.2,1.88,4.2,4.2ZM59.68,39.58c0-.63-.51-1.14-1.14-1.14s-1.14.51-1.14,1.14.51,1.14,1.14,1.14,1.14-.51,1.14-1.14Z"/>
      <path d="M68.43,24.15c-2.56,1.57-6.79-3.17-6.39-6.89.07-.67.43-1.35.86-1.68.6-.44,1.38-.5,2.09-.29,3.92,1.18,5.78,7.42,3.44,8.86ZM64.86,19.7c.42-.41.34-1.1.07-1.53-.24-.38-.82-.8-1.35-.52-.64.34-.39,1.2-.08,1.72.27.45.88.8,1.36.34Z"/>
      <path d="M10.21,28.57c-1.22.06-2.05-.92-2.22-2.03-.4-2.75,1.1-5.56,3.57-6.78.74-.36,1.54-.39,2.23.01,2.11,1.23.98,5.66-1.25,7.73-.61.57-1.41,1.02-2.34,1.07ZM10.72,23.35c.59-.54.87-1.29.46-1.97-.18-.3-.82-.18-1.05.08-.4.46-.65.96-.55,1.59.03.18.32.49.49.52.15.02.51-.11.64-.22Z"/>
      <path d="M69.67,61.24c-.88.43-1.77.02-2-.88-.8-3,3.32-9.63,5.66-7.8,1.54,1.2-.23,7-3.65,8.68ZM70.73,56.8c.61-.36,1.2-1.76.46-2.09s-1.56.96-1.43,1.62c.05.27.16.49.28.56s.49.04.69-.08Z"/>
      <path d="M30.08,14.9c-.51,1.55-2.06,2.37-3.58,2.08-1.28-.24-1.98-1.47-1.55-2.72.56-1.6,2.4-2.46,3.99-1.86.99.37,1.48,1.44,1.13,2.5ZM27.23,13.68c0-.33-.27-.6-.6-.6s-.6.27-.6.6.27.6.6.6.6-.27.6-.6Z"/>
      <path d="M56.56,53.61c0,1.46-1.19,2.65-2.65,2.65s-2.65-1.19-2.65-2.65,1.19-2.65,2.65-2.65,2.65,1.19,2.65,2.65ZM53.65,52.68c0-.37-.3-.67-.67-.67s-.67.3-.67.67.3.67.67.67.67-.3.67-.67Z"/>
    </g>
  </g>
</svg>
